<mxfile host="app.diagrams.net" modified="2023-06-23T06:04:20.421Z" agent="Mozilla/5.0 (Windows NT 10.0; Win64; x64; rv:109.0) Gecko/20100101 Firefox/113.0" version="21.5.0" etag="eshoj8co8I8HSexAqr0E" type="github">
  <diagram name="Page-1" id="pDpV7WeOmWzzQy2Ejz_Q">
    <mxGraphModel>
      <root>
        <mxCell id="0" />
        <mxCell id="1" parent="0" />
      </root>
    </mxGraphModel>
  </diagram>
</mxfile>
